<?xml version="1.0" encoding="UTF-8" standalone="no"?><svg xmlns="http://www.w3.org/2000/svg" xmlns:xlink="http://www.w3.org/1999/xlink" contentScriptType="application/ecmascript" contentStyleType="text/css" height="345px" preserveAspectRatio="none" style="width:1103px;height:345px;" version="1.1" viewBox="0 0 1103 345" width="1103px" zoomAndPan="magnify"><defs><filter height="300%" id="f1ega8ja7fmv30" width="300%" x="-1" y="-1"><feGaussianBlur result="blurOut" stdDeviation="2.0"/><feColorMatrix in="blurOut" result="blurOut2" type="matrix" values="0 0 0 0 0 0 0 0 0 0 0 0 0 0 0 0 0 0 .4 0"/><feOffset dx="4.0" dy="4.0" in="blurOut2" result="blurOut3"/><feBlend in="SourceGraphic" in2="blurOut3" mode="normal"/></filter></defs><g><!--MD5=[04923e4c001fc0941083af3e80e2dc4f]
cluster AM--><polygon fill="#FFFFFF" filter="url(#f1ega8ja7fmv30)" points="16,6,194,6,201,28.2969,236,28.2969,236,338,16,338,16,6" style="stroke: #000000; stroke-width: 1.5;"/><line style="stroke: #000000; stroke-width: 1.5;" x1="16" x2="201" y1="28.2969" y2="28.2969"/><text fill="#000000" font-family="sans-serif" font-size="14" font-weight="bold" lengthAdjust="spacingAndGlyphs" textLength="172" x="20" y="20.9951">ROS Action messages</text><!--MD5=[3cca780651f8c39eedb6c3b31b5a25b2]
cluster ROS Action Servers --><polygon fill="#FFFFFF" filter="url(#f1ega8ja7fmv30)" points="280,14,445,14,452,36.2969,592,36.2969,592,338,280,338,280,14" style="stroke: #000000; stroke-width: 1.5;"/><line style="stroke: #000000; stroke-width: 1.5;" x1="280" x2="452" y1="36.2969" y2="36.2969"/><text fill="#000000" font-family="sans-serif" font-size="14" font-weight="bold" lengthAdjust="spacingAndGlyphs" textLength="154" x="284" y="28.9951">ROS Action Servers</text><!--MD5=[72452d2f8998b9db5776540ab6c0191b]
cluster Comau C5G controller--><polygon fill="#FFFFFF" filter="url(#f1ega8ja7fmv30)" points="858,28,1038,28,1045,50.2969,1086,50.2969,1086,271,858,271,858,28" style="stroke: #000000; stroke-width: 1.5;"/><line style="stroke: #000000; stroke-width: 1.5;" x1="858" x2="1045" y1="50.2969" y2="50.2969"/><text fill="#000000" font-family="sans-serif" font-size="14" font-weight="bold" lengthAdjust="spacingAndGlyphs" textLength="174" x="862" y="42.9951">Comau C5G controller</text><!--MD5=[f3ce06f75c0d3ded7b98953483cba2d3]
cluster TCP/IP comm--><polygon fill="#FFFFFF" filter="url(#f1ega8ja7fmv30)" points="636,61,646,51,814,51,814,232,804,242,636,242,636,61" style="stroke: #000000; stroke-width: 1.5;"/><line style="stroke: #000000; stroke-width: 1.5;" x1="804" x2="814" y1="61" y2="51"/><line style="stroke: #000000; stroke-width: 1.5;" x1="636" x2="804" y1="61" y2="61"/><line style="stroke: #000000; stroke-width: 1.5;" x1="804" x2="804" y1="61" y2="242"/><text fill="#000000" font-family="sans-serif" font-size="14" font-weight="bold" lengthAdjust="spacingAndGlyphs" textLength="102" x="670" y="76.9951">TCP/IP comm</text><!--MD5=[b7690956ef101014e0363624dd952a52]
entity execj--><ellipse cx="126" cy="228" fill="#FEFECE" filter="url(#f1ega8ja7fmv30)" rx="8" ry="8" style="stroke: #A80036; stroke-width: 1.5;"/><text fill="#000000" font-family="sans-serif" font-size="14" lengthAdjust="spacingAndGlyphs" textLength="153" x="49.5" y="257.9951">ExecuteJointTrajectory</text><!--MD5=[68118b4289c950433fd0304795c8c3f2]
entity execc--><ellipse cx="126" cy="62" fill="#FEFECE" filter="url(#f1ega8ja7fmv30)" rx="8" ry="8" style="stroke: #A80036; stroke-width: 1.5;"/><text fill="#000000" font-family="sans-serif" font-size="14" lengthAdjust="spacingAndGlyphs" textLength="189" x="31.5" y="91.9951">ExecuteCartesianTrajectory</text><!--MD5=[3363f2efe9a292242d70ba0a80e115f6]
entity movej--><ellipse cx="126" cy="155" fill="#FEFECE" filter="url(#f1ega8ja7fmv30)" rx="8" ry="8" style="stroke: #A80036; stroke-width: 1.5;"/><text fill="#000000" font-family="sans-serif" font-size="14" lengthAdjust="spacingAndGlyphs" textLength="137" x="55.5" y="184.9951">MoveToJointsMoveIt</text><!--MD5=[6f155602fe5cd48dc4c1005196db0fee]
entity movec--><ellipse cx="126" cy="301" fill="#FEFECE" filter="url(#f1ega8ja7fmv30)" rx="8" ry="8" style="stroke: #A80036; stroke-width: 1.5;"/><text fill="#000000" font-family="sans-serif" font-size="14" lengthAdjust="spacingAndGlyphs" textLength="135" x="56.5" y="330.9951">MoveToPoseMoveIt</text><!--MD5=[a77eb5f6b8c7b4336ed2bdadee9105fd]
entity execute_joint_trajectory_handler--><rect fill="#FEFECE" filter="url(#f1ega8ja7fmv30)" height="46.2969" style="stroke: #A80036; stroke-width: 1.5;" width="262" x="305" y="203"/><rect fill="#FEFECE" height="10" style="stroke: #A80036; stroke-width: 1.5;" width="15" x="547" y="208"/><rect fill="#FEFECE" height="2" style="stroke: #A80036; stroke-width: 1.5;" width="4" x="545" y="210"/><rect fill="#FEFECE" height="2" style="stroke: #A80036; stroke-width: 1.5;" width="4" x="545" y="214"/><text fill="#000000" font-family="sans-serif" font-size="14" lengthAdjust="spacingAndGlyphs" textLength="222" x="320" y="235.9951">execute_joint_trajectory_handler</text><!--MD5=[d8cdebd6477f9702718258fc01e5ce44]
entity execute_cartesian_trajectory_handler--><rect fill="#FEFECE" filter="url(#f1ega8ja7fmv30)" height="46.2969" style="stroke: #A80036; stroke-width: 1.5;" width="296" x="288" y="41"/><rect fill="#FEFECE" height="10" style="stroke: #A80036; stroke-width: 1.5;" width="15" x="564" y="46"/><rect fill="#FEFECE" height="2" style="stroke: #A80036; stroke-width: 1.5;" width="4" x="562" y="48"/><rect fill="#FEFECE" height="2" style="stroke: #A80036; stroke-width: 1.5;" width="4" x="562" y="52"/><text fill="#000000" font-family="sans-serif" font-size="14" lengthAdjust="spacingAndGlyphs" textLength="256" x="303" y="73.9951">execute_cartesian_trajectory_handler</text><!--MD5=[8088df308a578c4825c14e3756bfbd6e]
entity move_joints_handler--><rect fill="#FEFECE" filter="url(#f1ega8ja7fmv30)" height="46.2969" style="stroke: #A80036; stroke-width: 1.5;" width="181" x="345.5" y="122"/><rect fill="#FEFECE" height="10" style="stroke: #A80036; stroke-width: 1.5;" width="15" x="506.5" y="127"/><rect fill="#FEFECE" height="2" style="stroke: #A80036; stroke-width: 1.5;" width="4" x="504.5" y="129"/><rect fill="#FEFECE" height="2" style="stroke: #A80036; stroke-width: 1.5;" width="4" x="504.5" y="133"/><text fill="#000000" font-family="sans-serif" font-size="14" lengthAdjust="spacingAndGlyphs" textLength="141" x="360.5" y="154.9951">move_joints_handler</text><!--MD5=[f02d0f839b5504e798bbbfa067c1b397]
entity move_topose_handler--><rect fill="#FEFECE" filter="url(#f1ega8ja7fmv30)" height="46.2969" style="stroke: #A80036; stroke-width: 1.5;" width="193" x="339.5" y="284"/><rect fill="#FEFECE" height="10" style="stroke: #A80036; stroke-width: 1.5;" width="15" x="512.5" y="289"/><rect fill="#FEFECE" height="2" style="stroke: #A80036; stroke-width: 1.5;" width="4" x="510.5" y="291"/><rect fill="#FEFECE" height="2" style="stroke: #A80036; stroke-width: 1.5;" width="4" x="510.5" y="295"/><text fill="#000000" font-family="sans-serif" font-size="14" lengthAdjust="spacingAndGlyphs" textLength="153" x="354.5" y="316.9951">move_topose_handler</text><!--MD5=[c8a686c0110cfe9f81fd1956e3460b07]
entity state_server (NOHOLD) --><rect fill="#FEFECE" filter="url(#f1ega8ja7fmv30)" height="46.2969" style="stroke: #A80036; stroke-width: 1.5;" width="203" x="870.5" y="217"/><rect fill="#FEFECE" height="10" style="stroke: #A80036; stroke-width: 1.5;" width="15" x="1053.5" y="222"/><rect fill="#FEFECE" height="2" style="stroke: #A80036; stroke-width: 1.5;" width="4" x="1051.5" y="224"/><rect fill="#FEFECE" height="2" style="stroke: #A80036; stroke-width: 1.5;" width="4" x="1051.5" y="228"/><text fill="#000000" font-family="sans-serif" font-size="14" lengthAdjust="spacingAndGlyphs" textLength="159" x="885.5" y="249.9951">state_server (NOHOLD)</text><!--MD5=[674cb638791554c676eacec1d6c48bc3]
entity motion_server (NOHOLD)--><rect fill="#FEFECE" filter="url(#f1ega8ja7fmv30)" height="46.2969" style="stroke: #A80036; stroke-width: 1.5;" width="212" x="866" y="55"/><rect fill="#FEFECE" height="10" style="stroke: #A80036; stroke-width: 1.5;" width="15" x="1058" y="60"/><rect fill="#FEFECE" height="2" style="stroke: #A80036; stroke-width: 1.5;" width="4" x="1056" y="62"/><rect fill="#FEFECE" height="2" style="stroke: #A80036; stroke-width: 1.5;" width="4" x="1056" y="66"/><text fill="#000000" font-family="sans-serif" font-size="14" lengthAdjust="spacingAndGlyphs" textLength="172" x="881" y="87.9951">motion_server (NOHOLD)</text><!--MD5=[8ac5c5fa04c4b705464504227a9fcc6d]
entity motion_handler (HOLD) --><rect fill="#FEFECE" filter="url(#f1ega8ja7fmv30)" height="46.2969" style="stroke: #A80036; stroke-width: 1.5;" width="204" x="870" y="136"/><rect fill="#FEFECE" height="10" style="stroke: #A80036; stroke-width: 1.5;" width="15" x="1054" y="141"/><rect fill="#FEFECE" height="2" style="stroke: #A80036; stroke-width: 1.5;" width="4" x="1052" y="143"/><rect fill="#FEFECE" height="2" style="stroke: #A80036; stroke-width: 1.5;" width="4" x="1052" y="147"/><text fill="#000000" font-family="sans-serif" font-size="14" lengthAdjust="spacingAndGlyphs" textLength="160" x="885" y="168.9951">motion_handler (HOLD)</text><!--MD5=[59c2f737956413c49ca5ad75fa414994]
entity StateClient--><ellipse cx="725" cy="205" fill="#FEFECE" filter="url(#f1ega8ja7fmv30)" rx="8" ry="8" style="stroke: #A80036; stroke-width: 1.5;"/><text fill="#000000" font-family="sans-serif" font-size="14" lengthAdjust="spacingAndGlyphs" textLength="75" x="687.5" y="234.9951">StateClient</text><!--MD5=[acdc173ca370b24632f96a9b6737cfe9]
entity MotionClient--><ellipse cx="725" cy="112" fill="#FEFECE" filter="url(#f1ega8ja7fmv30)" rx="8" ry="8" style="stroke: #A80036; stroke-width: 1.5;"/><text fill="#000000" font-family="sans-serif" font-size="14" lengthAdjust="spacingAndGlyphs" textLength="86" x="682" y="141.9951">MotionClient</text><!--MD5=[e9176d773b76a018ce73020add35fc7a]
link execj to execute_joint_trajectory_handler--><path d="M135.2777,227.9401 C161.0678,227.7738 236.2484,227.2887 304.9814,226.8453 " fill="none" id="execj-execute_joint_trajectory_handler" style="stroke: #A80036; stroke-width: 1.0;"/><!--MD5=[21b6458a13867160e98fe1a2d55b69c3]
link execc to execute_cartesian_trajectory_handler--><path d="M135.2777,62.0599 C158.9522,62.2126 224.2464,62.6338 287.9673,63.045 " fill="none" id="execc-execute_cartesian_trajectory_handler" style="stroke: #A80036; stroke-width: 1.0;"/><!--MD5=[94a4badc3245f215a33d0221902cba37]
link movej to move_joints_handler--><path d="M135.2777,154.7007 C166.256,153.7014 268.4956,150.4034 345.2255,147.9282 " fill="none" id="movej-move_joints_handler" style="stroke: #A80036; stroke-width: 1.0;"/><!--MD5=[824b32cd0aabb3ed0daa230804a10eae]
link movec to move_topose_handler--><path d="M135.2777,301.1796 C165.4501,301.7636 263.2241,303.656 339.1867,305.1262 " fill="none" id="movec-move_topose_handler" style="stroke: #A80036; stroke-width: 1.0;"/><!--MD5=[b810f7d2c7001e6a68d8edb5bae9f434]
link move_joints_handler to execj--><path d="M345.2513,166.6721 C323.746,172.2477 300.9686,178.5162 280,185 C260.1203,191.147 255.9111,194.9555 236,201 C202.0015,211.3211 161.1975,220.5233 140.1317,225.0444 " fill="none" id="move_joints_handler-to-execj" style="stroke: #A80036; stroke-width: 1.0;"/><polygon fill="#A80036" points="135.2174,226.0908,144.8531,228.1285,140.1077,225.0494,143.1869,220.304,135.2174,226.0908" style="stroke: #A80036; stroke-width: 1.0;"/><!--MD5=[02d3aa45aeb8a41087cda991008b2b1b]
link move_topose_handler to execj--><path d="M347.6863,283.9413 C325.5735,278.1259 301.9106,271.867 280,266 C260.42,260.7571 255.6438,258.9987 236,254 C201.638,245.256 160.9836,235.9028 140.0373,231.1564 " fill="none" id="move_topose_handler-to-execj" style="stroke: #A80036; stroke-width: 1.0;"/><polygon fill="#A80036" points="135.1525,230.0521,143.0489,235.9383,140.0294,231.1547,144.813,228.1352,135.1525,230.0521" style="stroke: #A80036; stroke-width: 1.0;"/><!--MD5=[c2e17b6e1b73b8a3b3d1ecad4d15f0d3]
link motion_handler (HOLD)  to motion_server (NOHOLD)--><path d="M972,135.9023 C972,124.2917 972,112.6811 972,101.0705 " fill="none" id="motion_handler (HOLD) -motion_server (NOHOLD)" style="stroke: #A80036; stroke-width: 1.0;"/><!--MD5=[bd260cb70e93435132862b941e31e583]
link StateClient to state_server (NOHOLD) --><path d="M739.343,207.0324 C763.9941,210.5255 816.4738,217.9619 865.3613,224.8892 " fill="none" id="StateClient-state_server (NOHOLD) " style="stroke: #A80036; stroke-width: 1.0;"/><polygon fill="#A80036" points="870.3842,225.601,862.0345,220.3778,865.4337,224.8994,860.912,228.2986,870.3842,225.601" style="stroke: #A80036; stroke-width: 1.0;"/><polygon fill="#A80036" points="734.0838,206.2872,742.4335,211.5105,739.0343,206.9888,743.556,203.5896,734.0838,206.2872" style="stroke: #A80036; stroke-width: 1.0;"/><!--MD5=[32b01abf14338e63b10a5454008c9f6b]
link MotionClient to motion_server (NOHOLD)--><path d="M739.1858,110.0473 C763.0018,106.769 813.1078,99.8718 860.7562,93.3129 " fill="none" id="MotionClient-motion_server (NOHOLD)" style="stroke: #A80036; stroke-width: 1.0;"/><polygon fill="#A80036" points="865.9536,92.5975,856.4921,89.8625,861.0003,93.2795,857.5833,97.7877,865.9536,92.5975" style="stroke: #A80036; stroke-width: 1.0;"/><polygon fill="#A80036" points="734.0838,110.7496,743.5453,113.4846,739.0371,110.0676,742.4541,105.5594,734.0838,110.7496" style="stroke: #A80036; stroke-width: 1.0;"/><!--MD5=[b14e8ff62fc612c8c6c932509f916f3c]
reverse link execute_joint_trajectory_handler to StateClient--><path d="M572.3891,216.0894 C631.6964,211.7798 692.8314,207.3375 715.6635,205.6784 " fill="none" id="execute_joint_trajectory_handler-backto-StateClient" style="stroke: #A80036; stroke-width: 1.0;"/><polygon fill="#A80036" points="567.3925,216.4524,576.6588,219.7895,572.3793,216.09,576.0789,211.8106,567.3925,216.4524" style="stroke: #A80036; stroke-width: 1.0;"/><!--MD5=[ec65bdfce6be53611132311841df5d9e]
link execute_joint_trajectory_handler to MotionClient--><path d="M541.0588,202.9219 C558.3705,197.837 575.905,191.8751 592,185 C613.0995,175.9872 616.0176,169.2749 636,158 C662.1697,143.2339 693.5497,127.4487 711.1902,118.7443 " fill="none" id="execute_joint_trajectory_handler-to-MotionClient" style="stroke: #A80036; stroke-width: 1.0;"/><polygon fill="#A80036" points="715.7856,116.4837,705.9442,116.8673,711.2991,118.6908,709.4756,124.0457,715.7856,116.4837" style="stroke: #A80036; stroke-width: 1.0;"/><!--MD5=[8e7f19bea226228a1f3b8dce0182f78f]
reverse link execute_cartesian_trajectory_handler to StateClient--><path d="M562.7677,88.9681 C573.0169,93.2164 582.9107,98.1863 592,104 C618.0798,120.6812 612.0542,138.3781 636,158 C661.9498,179.2641 699.0374,195.0695 715.9593,201.6433 " fill="none" id="execute_cartesian_trajectory_handler-backto-StateClient" style="stroke: #A80036; stroke-width: 1.0;"/><polygon fill="#A80036" points="558.0352,87.0664,564.8948,94.1336,562.6747,88.9306,567.8776,86.7105,558.0352,87.0664" style="stroke: #A80036; stroke-width: 1.0;"/><!--MD5=[c40b30e6ba1216b20105381fd6e27161]
link execute_cartesian_trajectory_handler to MotionClient--><path d="M574.5747,87.0159 C629.4836,96.1357 685.5353,105.4453 710.9444,109.6655 " fill="none" id="execute_cartesian_trajectory_handler-to-MotionClient" style="stroke: #A80036; stroke-width: 1.0;"/><polygon fill="#A80036" points="715.8898,110.4869,707.667,105.066,710.9574,109.6675,706.3559,112.9579,715.8898,110.4869" style="stroke: #A80036; stroke-width: 1.0;"/><!--MD5=[5972989eadd23e96adf9ac77f51f1901]
@startuml comau_action_handlers_component_diagram
  skinparam componentStyle uml2
  skinparam defaultTextAlignment center

  left to right direction

  package "ROS Action messages" as AM{
    () "ExecuteJointTrajectory" as execj
    () "ExecuteCartesianTrajectory" as execc
    () "MoveToJointsMoveIt " as movej
    () "MoveToPoseMoveIt " as movec
  }

  package "ROS Action Servers " {
    execj -down- [execute_joint_trajectory_handler] 
    execc -down- [execute_cartesian_trajectory_handler] 
    movej -down- [move_joints_handler]
    movec -down- [move_topose_handler]

    [move_joints_handler] -> execj
    [move_topose_handler] -> execj

  } 


  package "Comau C5G controller"{
      [state_server (NOHOLD) ]
      [motion_server (NOHOLD)] -left- [motion_handler (HOLD) ]
  }


  node "TCP/IP comm"{
  [state_server (NOHOLD) ] <-up->  StateClient
  [motion_server (NOHOLD)] <-up-> MotionClient

  [execute_joint_trajectory_handler] <-down- StateClient
  [execute_joint_trajectory_handler] -down-> MotionClient
  [execute_cartesian_trajectory_handler] <-down- StateClient
  [execute_cartesian_trajectory_handler] -down-> MotionClient
  }
  




  ' note left of AM : See comau_msgs package

  @enduml

@startuml comau_action_handlers_component_diagram
  skinparam componentStyle uml2
  skinparam defaultTextAlignment center

  left to right direction

  package "ROS Action messages" as AM{
    () "ExecuteJointTrajectory" as execj
    () "ExecuteCartesianTrajectory" as execc
    () "MoveToJointsMoveIt " as movej
    () "MoveToPoseMoveIt " as movec
  }

  package "ROS Action Servers " {
    execj -down- [execute_joint_trajectory_handler] 
    execc -down- [execute_cartesian_trajectory_handler] 
    movej -down- [move_joints_handler]
    movec -down- [move_topose_handler]

    [move_joints_handler] -> execj
    [move_topose_handler] -> execj

  } 


  package "Comau C5G controller"{
      [state_server (NOHOLD) ]
      [motion_server (NOHOLD)] -left- [motion_handler (HOLD) ]
  }


  node "TCP/IP comm"{
  [state_server (NOHOLD) ] <-up->  StateClient
  [motion_server (NOHOLD)] <-up-> MotionClient

  [execute_joint_trajectory_handler] <-down- StateClient
  [execute_joint_trajectory_handler] -down-> MotionClient
  [execute_cartesian_trajectory_handler] <-down- StateClient
  [execute_cartesian_trajectory_handler] -down-> MotionClient
  }
  





  @enduml

PlantUML version 1.2020.18(Wed Sep 30 22:40:44 EEST 2020)
(GPL source distribution)
Java Runtime: OpenJDK Runtime Environment
JVM: OpenJDK 64-Bit Server VM
Default Encoding: UTF-8
Language: en
Country: US
--></g></svg>